<?xml version="1.0" encoding="UTF-8"?>
<svg xmlns="http://www.w3.org/2000/svg" viewBox="0 0 64 64" width="64" height="64">
  <defs>
    <linearGradient id="g1" x1="0" x2="1" y1="0" y2="1">
      <stop offset="0" stop-color="#2563eb"/>
      <stop offset="1" stop-color="#1e40af"/>
    </linearGradient>
    <linearGradient id="g2" x1="0" x2="1" y1="0" y2="1">
      <stop offset="0" stop-color="#10b981"/>
      <stop offset="1" stop-color="#059669"/>
    </linearGradient>
  </defs>

  <!-- background -->
  <rect width="64" height="64" rx="12" ry="12" fill="#0f172a" />

  <!-- bottom book (green) -->
  <g transform="translate(8,34)">
    <rect x="0" y="0" width="48" height="16" rx="2" ry="2" fill="url(#g2)" />
    <!-- pages -->
    <rect x="4" y="3" width="38" height="10" rx="1" ry="1" fill="#fff" opacity="0.14" />
    <rect x="6" y="4" width="34" height="1" fill="#e6f4ef" opacity="0.6" />
  </g>

  <!-- top book (blue, slightly offset) -->
  <g transform="translate(6,18)">
    <rect x="0" y="0" width="48" height="16" rx="2" ry="2" fill="url(#g1)" />
    <!-- pages -->
    <rect x="4" y="3" width="38" height="10" rx="1" ry="1" fill="#fff" opacity="0.12" />
    <rect x="6" y="4" width="34" height="1" fill="#eaf2ff" opacity="0.6" />
  </g>

  <!-- small highlights / lines -->
  <g fill="rgba(255,255,255,0.08)">
    <rect x="14" y="22" width="3" height="2" rx="0.5" />
    <rect x="22" y="22" width="3" height="2" rx="0.5" />
  </g>

  <!-- simple tiny spine symbol -->
  <rect x="10" y="20" width="4" height="12" rx="1" ry="1" fill="#0b1220" opacity="0.14" />

</svg>
